{"title":"LEVIATHAN.DEWSTRR","uid":4787990,"size":1468745831,"categoryP":"video","categoryS":"movies","magnet":"?xt=urn:btih:835d73c752d141d190e3da1ecf687961382cd0ba&amp;dn=LEVIATHAN.DEWSTRR&amp;tr=udp%3A%2F%2Ftracker.openbittorrent.com%3A80&amp;tr=udp%3A%2F%2Fopen.demonii.com%3A1337&amp;tr=udp%3A%2F%2Ftracker.coppersurfer.tk%3A6969&amp;tr=udp%3A%2F%2Fexodus.desync.com%3A6969","seeders":0,"leechers":1,"uploader":"dewstrr505","files":14,"time":1237621022,"description":"LEVIATHAN DVDRIP\n\nHorror | Sci-Fi | Thriller\n\nUnderwater deep-sea miners encounter a Soviet wreck and bring back a dangerous cargo to their base on the ocean floor with horrifying results.The crew of the mining base must fight to survive against a genetic mutation of several of the crew mutated together that hunts them down one by one.\n\n[IMG]http://i203.photobucket.com/albums/aa38/476352oop/MOVIES/LEVIATHANRT.jpg[/IMG]\n &lt;a href=&quot;\nhttp://www.imdb.com/title/tt0097737/&quot; rel=&quot;nofollow&quot; target=&quot;_NEW&quot;&gt;\nhttp://www.imdb.com/title/tt0097737/&lt;/a&gt;\n\nFormat :      AVI\nFormat/Info :     Audio Video Interleave\nFile size :     1.37 GiB\nDuration :     1h 37mn\nOverall bit rate :     1 999 Kbps\nWriting application :     VirtualDubMod 1.5.4.1 (build 2178/release)\nWriting library :     VirtualDubMod build 2178/release\n\nVideo\nFormat :     MPEG-4 Visual\nFormat profile :     Streaming Video@L1\nFormat settings, BVOP :     Yes\nFormat settings, QPel :     No\nFormat settings, GMC :     No warppoints\nFormat settings, Matrix :     Custom\nCodec ID :     XVID\nCodec ID/Hint :     XviD\nDuration :     1h 37mn\nBit rate :     1 801 Kbps\nWidth :     720 pixels\nHeight :     304 pixels\nDisplay aspect ratio :     2.35\nFrame rate :     23.976 fps\nResolution :     24 bits\nColorimetry :     4:2:0\nScan type :     Progressive\nBits/(Pixel*Frame) :     0.343\nStream size :     1.23 GiB (90%)\nWriting library :     XviD 1.2.1 (UTC 2008-12-04)\n\nAudio\nFormat :     AC-3\nFormat/Info :     Audio Coding 3\nFormat profile :     Dolby Digital\nCodec ID :     2000\nDuration :     1h 37mn\nBit rate mode :     Constant\nBit rate :     192 Kbps\nChannel(s) :     2 channels\nChannel positions :     L R\nSampling rate :     48.0 KHz\nStream size :     134 MiB (10%)\nAlignment :     Split accross interleaves\nInterleave, duration :     96 ms (2.30 video frames)\nInterleave, preload duration :     96 ms\nLanguage :     English\n\nGeneral\nComplete name : LEVIATHAN.DEWSTRRLEVIATHAN RT.sfv\nFile size :     1.52 KiB\n\nGeneral\nComplete name :\nFile size :     47.0 Bytes\n[IMG]http://i203.photobucket.com/albums/aa38/476352oop/MOVIES/LV1.jpg[/IMG]\n[IMG]http://i203.photobucket.com/albums/aa38/476352oop/MOVIES/LV2.jpg[/IMG]\n[IMG]http://i203.photobucket.com/albums/aa38/476352oop/MOVIES/LV3.jpg[/IMG]\n[IMG]http://i203.photobucket.com/albums/aa38/476352oop/MOVIES/LV4.jpg[/IMG]\n[IMG]http://i203.photobucket.com/albums/aa38/476352oop/MOVIES/LV5.jpg[/IMG]\n[IMG]http://i203.photobucket.com/albums/aa38/476352oop/MOVIES/LV6.jpg[/IMG]\n[IMG]http://i203.photobucket.com/albums/aa38/476352oop/MOVIES/LV7.jpg[/IMG]\n[IMG]http://i203.photobucket.com/albums/aa38/476352oop/MOVIES/LV8.jpg[/IMG]\n[IMG]http://i203.photobucket.com/albums/aa38/476352oop/MOVIES/LV9.jpg[/IMG]\n[IMG]http://i203.photobucket.com/albums/aa38/476352oop/MOVIES/LV10.jpg[/IMG]\nburned with windows [with a couple of other movies on a disk] and played on my philips divx ultra certified dvd player\nbe sure to set your dvd player on the correct aspect ratio\n\n","torrent":{"xt":"urn:btih:835d73c752d141d190e3da1ecf687961382cd0ba","amp;dn":"LEVIATHAN.DEWSTRR","amp;tr":["udp%3A%2F%2Ftracker.openbittorrent.com%3A80","udp%3A%2F%2Fopen.demonii.com%3A1337","udp%3A%2F%2Ftracker.coppersurfer.tk%3A6969","udp%3A%2F%2Fexodus.desync.com%3A6969"],"infoHash":"835d73c752d141d190e3da1ecf687961382cd0ba","infoHashBuffer":{"type":"Buffer","data":[131,93,115,199,82,209,65,209,144,227,218,30,207,104,121,97,56,44,208,186]},"announce":[],"urlList":[]}}